<svg width="119" height="36" viewBox="0 0 119 36" fill="none" xmlns="http://www.w3.org/2000/svg">
<mask id="mask0_597_7225" style="mask-type:luminance" maskUnits="userSpaceOnUse" x="98" y="0" width="21" height="36">
<path d="M108.047 0.1C108.015 0.15 107.977 0.195 107.94 0.24C107.935 0.2425 107.935 0.247501 107.932 0.252501C107.612 0.482501 107.47 0.8675 107.21 1.1625C107.05 1.3475 106.827 1.4675 106.647 1.6325C106.405 1.85 106.222 2.155 105.965 2.35C105.777 2.49 105.53 2.5275 105.375 2.72C105.307 2.8025 105.302 2.8875 105.257 2.975C105.187 3.1175 105.052 3.1875 104.937 3.285C104.685 3.4975 104.447 3.725 104.212 3.955C104.175 3.9625 104.137 3.9725 104.097 3.995C103.827 4.15 103.69 4.4225 103.487 4.6475C103.475 4.66 103.472 4.6725 103.462 4.6875C103.255 4.925 103.04 5.155 102.8 5.355C102.43 5.665 102.047 5.96 101.817 6.385C101.725 6.4625 101.637 6.54 101.545 6.6175C101.537 6.6375 101.537 6.6575 101.527 6.6725C101.392 6.8575 101.237 7.0225 101.075 7.185C101.015 7.2475 100.935 7.275 100.847 7.28C100.842 7.28 100.835 7.2775 100.83 7.2775C100.825 7.3175 100.815 7.3575 100.795 7.3925C100.795 7.3925 100.795 7.395 100.795 7.3975C100.795 7.405 100.775 7.4625 100.76 7.485C100.742 7.5125 100.722 7.54 100.7 7.5625C100.665 7.6 100.62 7.6225 100.57 7.64C100.477 7.7225 100.382 7.805 100.28 7.8725C100.245 7.8975 100.205 7.9075 100.162 7.915L100.042 8.035C100.017 8.0625 99.9948 8.0875 99.9723 8.115C99.5173 8.6225 99.1798 9.2175 98.5898 9.5825C98.7148 9.7375 98.8523 9.8875 98.9723 10.045C99.2248 10.3825 99.4698 10.735 99.7048 11.0875C99.8273 11.27 99.9073 11.39 100.127 11.4725C100.3 11.54 100.455 11.615 100.58 11.7425C100.722 11.8925 100.8 12.0775 100.87 12.2725C100.872 12.28 100.875 12.285 100.877 12.2925C101.785 12.865 102.652 13.4475 102.937 14.1725C102.955 14.1925 102.97 14.2125 102.985 14.2325C103.007 14.2575 103.027 14.28 103.05 14.3075C103.18 14.3925 103.305 14.48 103.407 14.6C103.447 14.6475 103.465 14.7075 103.467 14.77C103.555 14.8175 103.635 14.8725 103.697 14.9475C103.75 15.0075 103.792 15.0825 103.81 15.1675C103.84 15.1975 103.867 15.2275 103.895 15.2575C104.155 15.53 104.56 15.7825 104.79 16.1175C104.917 16.1875 104.967 16.3225 104.947 16.465C104.955 16.49 104.952 16.5175 104.955 16.545C104.965 16.5775 104.97 16.6125 104.967 16.6525C104.967 16.6525 104.967 16.6625 104.967 16.6675C104.972 16.6725 104.975 16.68 104.98 16.6875C104.995 16.7075 104.997 16.7125 105 16.7225C105.015 16.735 105.027 16.7425 105.042 16.7525C105.43 16.535 105.96 16.39 105.635 16.7975C105.507 16.735 105.337 16.7925 105.182 16.8625C105.345 17.0025 105.487 17.16 105.58 17.355C105.585 17.36 105.587 17.36 105.592 17.3625C105.65 17.355 105.705 17.355 105.76 17.365C105.84 17.3475 105.922 17.33 106.002 17.295C106.082 17.2575 106.165 17.305 106.17 17.38C106.172 17.4475 106.195 17.5025 106.212 17.5625C106.17 17.63 106.122 17.6925 106.07 17.755C106.13 17.7225 106.187 17.6975 106.24 17.68C106.272 17.7575 106.32 17.8275 106.37 17.8925C106.365 17.905 106.36 17.915 106.35 17.9275C106.217 17.8675 106.04 17.9625 105.885 18.0575C105.755 18.1375 105.637 18.215 105.575 18.205C105.555 18.23 105.527 18.24 105.505 18.2575C104.997 18.985 104.385 19.6625 103.612 20.0625C103.48 20.24 103.36 20.425 103.215 20.59C103.125 20.6925 103.025 20.78 102.942 20.8925C102.897 20.9575 102.857 21.0275 102.812 21.1C102.552 21.19 102.3 21.4275 102.042 21.7475C101.895 21.84 101.735 21.9175 101.612 22.0225C101.31 22.2825 101.005 22.5975 100.76 22.91C100.515 23.2175 100.307 23.5375 100.032 23.82C100.017 23.835 100.002 23.85 99.9873 23.865C99.9573 23.87 99.9273 23.8775 99.8973 23.8975C99.6048 24.0725 99.4523 24.3225 99.2173 24.56C99.0748 24.7 98.9173 24.7925 98.7773 24.905C98.7648 24.89 98.7548 24.8775 98.7423 24.86C98.7173 24.895 98.6973 24.9325 98.6673 24.965C98.5623 25.1 98.4248 25.2 98.2773 25.2825C98.5473 25.715 98.9448 26.0625 99.3073 26.415C99.8548 27.1675 101.225 28.375 102 28.7725C102.102 28.8875 102.212 28.9925 102.33 29.09C102.365 29.6625 103.425 30.07 103.832 30.6675C103.91 30.555 103.97 30.4675 104.017 30.405C104.072 30.4575 104.13 30.5075 104.187 30.5575C104.172 30.725 104.162 30.9325 104.215 31.09C104.26 31.1125 104.302 31.1275 104.342 31.14C104.357 31.1675 104.37 31.195 104.397 31.2225C104.54 31.3675 104.685 31.515 104.83 31.6625C105.082 32.1425 105.535 32.495 105.96 32.8125C106.05 32.88 106.122 32.9425 106.19 33.01C106.195 33.015 106.2 33.0175 106.205 33.025C106.272 33.0925 106.332 33.17 106.39 33.265C106.47 33.39 106.555 33.5075 106.665 33.61C106.76 33.695 106.872 33.77 106.93 33.885C107.002 34.0225 107.13 34.055 107.245 34.0225C107.255 34.035 107.265 34.05 107.275 34.0625C107.27 34.1375 107.29 34.215 107.362 34.2825C107.557 34.475 107.745 34.6775 107.947 34.86C108.047 34.965 108.15 35.065 108.252 35.17C108.39 35.025 108.532 34.8875 108.682 34.7575C108.65 34.725 108.62 34.6925 108.587 34.6625C108.6 34.6575 108.615 34.655 108.627 34.645C108.655 34.63 108.677 34.6125 108.702 34.5925C108.727 34.575 108.75 34.5575 108.772 34.535C108.86 34.4425 108.912 34.3375 108.952 34.22L108.962 34.1425C108.962 34.1025 108.955 34.065 108.937 34.03C108.937 34.0225 108.93 34.015 108.927 34.0075C108.965 34.0025 109 33.9925 109.032 33.9775C109.11 33.9875 109.145 34.0275 109.175 34.085C109.19 34.0725 109.202 34.055 109.22 34.0475C109.33 33.9825 109.44 33.9125 109.545 33.84C109.565 33.825 109.585 33.8125 109.605 33.795C109.515 33.7075 109.38 33.6475 109.23 33.6625C109.222 33.5975 109.2 33.535 109.15 33.485C109.135 33.47 109.125 33.455 109.112 33.4425C109.055 33.325 108.98 33.2125 108.877 33.1275C108.852 33.1075 108.825 33.09 108.795 33.075C108.787 33.065 108.777 33.0575 108.77 33.045C108.927 33.015 109.11 32.725 109.04 32.3925C108.882 32.565 108.69 32.37 108.66 32.1725C108.637 32.0275 108.702 31.88 108.94 31.885C109.862 30.4925 108.922 31.58 107.972 32.2325C107.972 32.21 107.967 32.1875 107.957 32.1725C107.942 32.15 107.925 32.13 107.91 32.1075C107.927 32.0975 107.947 32.09 107.967 32.08C108.052 32.0225 108.07 31.915 108.01 31.86C107.98 31.8325 107.947 31.805 107.915 31.78C107.975 31.705 108.025 31.6225 108.06 31.5125C107.52 31.285 107.78 31.1225 108.04 31.1775C108.225 31.2175 108.41 31.37 108.305 31.6875C109.067 31.2175 108.54 30.74 108.015 30.3C107.545 29.91 107.072 29.55 107.517 29.255C106.77 29.3375 106.757 28.7475 106.682 28.3625C106.502 28.6225 106.375 28.65 106.325 28.5675C106.332 28.5525 106.34 28.5375 106.342 28.52C106.357 28.435 106.357 28.355 106.35 28.2775C106.367 28.2375 106.39 28.195 106.42 28.15C106.395 28.175 106.367 28.195 106.34 28.21C106.31 28 106.217 27.81 106.105 27.635C106.162 27.515 106.215 27.41 106.257 27.34C106.28 27.365 106.302 27.39 106.327 27.415C106.317 27.46 106.307 27.51 106.292 27.5725C106.327 27.54 106.357 27.5075 106.387 27.4775C106.52 27.62 106.655 27.76 106.787 27.9C106.737 27.9375 106.697 27.9875 106.672 28.05C106.772 28.0025 106.837 27.99 106.882 28.0025C106.91 28.03 106.94 28.06 106.967 28.0925C107.027 28.255 106.992 28.5975 107.26 28.8425C107.357 28.715 107.377 28.59 107.422 28.5425C107.557 28.6725 107.697 28.8 107.837 28.9225C107.835 28.925 107.83 28.93 107.827 28.9325C107.835 28.9325 107.84 28.9325 107.847 28.93C107.885 28.9625 107.92 28.995 107.955 29.0275C107.997 29.065 108.042 29.095 108.087 29.13C108.07 29.2225 108.042 29.34 108.042 29.485C108.09 29.3875 108.142 29.295 108.197 29.2175C108.477 29.44 108.767 29.6475 109.077 29.825C109.132 29.855 109.19 29.825 109.23 29.78C109.22 29.8475 109.182 29.94 109.107 30.07C109.187 30.08 109.272 30.075 109.352 30.07C109.585 30.0525 109.757 30.035 109.512 30.425C110 30.22 110.252 30.5625 110.485 30.905C110.762 31.3125 111.01 31.72 111.577 31.2075C110.782 30.26 103.577 23.5125 106.265 25.4775C106.945 26.055 107.667 26.65 108.295 27.285C108.517 27.2375 108.492 27.4025 108.467 27.5675C108.442 27.735 108.42 27.9 108.64 27.8525C109.147 27.815 109.492 28.195 109.825 28.575C110.212 29.0175 110.58 29.46 111.16 29.2425C110.93 29.6 111.79 30.27 112.025 30.17C113.995 31.5225 110.685 28.675 110.182 27.885C110.512 28.1425 110.755 28.1425 111.082 27.695C111.117 27.9075 111.207 28.045 111.47 27.885C111.56 28.1525 111.475 28.5025 111.872 28.35C111.377 28.83 111.51 28.8075 111.642 28.7775C111.747 28.755 111.852 28.7325 111.642 28.955C112.43 28.77 112.25 29.44 113 29.5825C113.26 29.0075 113.34 29.12 113.48 29.2325C113.572 29.3075 113.692 29.3825 113.907 29.255C114.035 29.265 114.167 29.2075 114.215 29.0475C114.227 29.0125 114.252 28.9675 114.27 28.9275C114.392 28.79 114.53 28.6125 114.69 28.38C114.715 28.3725 114.737 28.365 114.76 28.35C114.862 28.275 114.967 28.21 115.072 28.145C115.175 28.08 115.217 27.9825 115.215 27.885C115.305 27.8175 115.395 27.75 115.482 27.68C115.667 27.5325 115.797 27.355 115.912 27.16C116.187 26.985 116.477 26.825 116.72 26.605C116.775 26.555 116.8 26.485 116.802 26.41C116.942 26.3125 117.075 26.2125 117.19 26.0875C117.232 26.04 117.257 25.98 117.267 25.9175L117.472 25.7125C117.502 25.68 117.525 25.64 117.54 25.5975L117.657 25.4775C117.657 25.4775 117.662 25.4675 117.667 25.4625C117.787 25.4425 117.882 25.345 117.915 25.2325C117.81 25.1125 117.71 24.9875 117.612 24.86C117.597 24.8475 117.582 24.835 117.57 24.825C117.562 24.82 117.555 24.8225 117.547 24.8175C117.48 24.7875 117.42 24.74 117.365 24.6925C117.322 24.66 117.287 24.6275 117.25 24.59C117.225 24.5625 117.207 24.53 117.182 24.5025C117.16 24.4825 117.135 24.465 117.115 24.4425C117.107 24.4375 117.037 24.3625 117.08 24.4C117.005 24.3275 116.927 24.2725 116.86 24.1875C116.837 24.1625 116.822 24.135 116.8 24.11C116.767 24.095 116.732 24.0825 116.697 24.0675C116.58 23.9175 116.405 23.7875 116.21 23.6975C116.022 23.495 115.872 23.29 115.697 23.0725C115.46 22.775 115.177 22.5025 114.925 22.21C114.76 22.015 114.585 21.83 114.41 21.6475C114.35 21.64 114.29 21.6225 114.235 21.5725C113.47 20.89 112.757 20.1525 112.04 19.425C112.027 19.435 112.012 19.4425 112 19.455C111.662 19.015 111.292 18.6025 110.825 18.28C110.815 18.2625 110.802 18.2475 110.795 18.2275C110.755 18.185 110.715 18.145 110.675 18.105C110.675 18.1025 110.67 18.1 110.67 18.0975C110.632 18.0775 110.597 18.0625 110.56 18.0325C110.47 17.9675 110.407 17.8875 110.357 17.8025C110.342 17.7925 110.327 17.7875 110.312 17.7775L110.262 17.74C110.262 17.74 110.25 17.735 110.245 17.73C110.2 17.685 110.157 17.6375 110.115 17.59C110.165 17.555 110.215 17.52 110.26 17.48C110.272 17.47 110.28 17.4575 110.292 17.45C110.31 17.4375 110.327 17.4275 110.345 17.415C110.355 17.4025 110.362 17.385 110.37 17.3725C110.477 17.2675 110.58 17.1575 110.677 17.0425C110.692 17.0425 110.707 17.0425 110.722 17.045C110.732 17.01 110.755 16.9725 110.77 16.9375C110.91 16.77 111.047 16.6025 111.197 16.4525C111.407 16.2425 111.575 16 111.752 15.765C112.025 15.5425 112.297 15.3575 112.512 15.24C113.562 14.115 114.417 12.9625 115.707 12.0775C116.077 11.675 116.23 11.39 116.25 11.235C116.35 11.165 116.442 11.085 116.527 11.0025C116.62 10.975 116.7 10.9225 116.76 10.8375C116.8 10.7825 116.8 10.7275 116.765 10.69C116.772 10.6875 116.782 10.685 116.795 10.6825C116.9 10.7525 117.045 10.77 117.167 10.665C117.362 10.495 117.522 10.2875 117.682 10.085C117.695 10.0325 117.72 9.9825 117.762 9.945C117.785 9.925 117.81 9.9125 117.832 9.895C117.832 9.895 117.832 9.8925 117.83 9.8925C117.852 9.8775 117.875 9.86 117.895 9.845C117.9 9.8425 117.897 9.845 117.9 9.8425C117.927 9.8225 117.955 9.8 117.982 9.7775C117.987 9.765 118 9.755 118.005 9.7425C118.015 9.7175 118.017 9.6925 118.022 9.665C117.942 9.555 117.86 9.445 117.775 9.3425C117.76 9.34 117.745 9.33 117.73 9.33C117.72 9.33 117.705 9.33 117.695 9.33C117.622 9.2325 117.56 9.125 117.47 9.035C117.32 8.88 117.127 8.7725 116.967 8.63C116.595 8.2925 116.235 7.9425 115.877 7.5875C115.87 7.575 115.86 7.5625 115.85 7.55C115.625 7.26 115.392 6.975 115.1 6.75C115.095 6.745 115.087 6.7375 115.08 6.735C115.027 6.6775 114.975 6.62 114.927 6.5625C114.672 6.255 114.41 5.99 114.015 5.875C113.997 5.8725 113.98 5.88 113.962 5.88C113.47 5.295 112.93 4.7075 112.385 4.17C112.137 4.46667 111.877 4.58083 111.605 4.5125C112.577 3.9225 111.537 3.0025 110.357 2.0825C110.31 2.03 110.262 1.98 110.217 1.925C109.817 1.6475 109.462 1.3175 109.127 0.9575C108.985 0.8075 108.845 0.655001 108.705 0.502501C108.66 0.472501 108.617 0.4375 108.572 0.4125C108.58 0.4 108.58 0.3875 108.585 0.375C108.462 0.2475 108.332 0.12 108.202 0C108.145 0.025 108.092 0.0674999 108.05 0.12" fill="white"/>
</mask>
<g mask="url(#mask0_597_7225)">
<path d="M103.21 -8.57582L83.0391 26.3618L113.088 43.7106L133.259 8.77294L103.21 -8.57582Z" fill="white"/>
</g>
<path d="M21.855 2.30245C21.735 2.30245 21.6775 2.26495 21.6775 2.15495V1.77245C21.6775 1.65995 21.7325 1.62495 21.855 1.62495H26.3525C26.4825 1.62495 26.53 1.67995 26.51 1.78245L26.455 2.15495C26.435 2.27495 26.38 2.30245 26.25 2.30245H24.485V7.83995C24.485 7.95995 24.4275 8.02495 24.3075 8.02495H23.805C23.675 8.02495 23.62 7.97745 23.62 7.83995V2.30245H21.855Z" fill="white"/>
<path d="M28.2775 8.11745C26.8375 8.11745 26.1975 7.09495 26.1975 5.76745C26.1975 4.43995 26.95 3.43495 28.335 3.43495C29.72 3.43495 30.425 4.42995 30.425 5.77745C30.425 7.12495 29.6625 8.11745 28.2775 8.11745ZM28.325 4.04745C27.3225 4.04745 27.015 4.92995 27.015 5.74745C27.015 6.56495 27.3025 7.50245 28.2875 7.50245C29.2725 7.50245 29.6075 6.64745 29.6075 5.78245C29.6075 4.91745 29.2925 4.04495 28.325 4.04495" fill="white"/>
<path d="M34.2425 3.72245C34.2425 3.59245 34.3075 3.53745 34.4275 3.53745H34.855C34.975 3.53745 35.0325 3.59245 35.0325 3.72245V7.83995C35.0325 7.96995 34.985 8.02495 34.855 8.02495H34.445C34.3325 8.02495 34.2675 7.97745 34.2675 7.85745L34.2575 7.55995C33.83 7.92245 33.3275 8.11745 32.79 8.11745C31.72 8.11745 31.33 7.42995 31.33 6.43495V3.72245C31.33 3.59245 31.395 3.53745 31.515 3.53745H31.9425C32.0625 3.53745 32.12 3.59245 32.12 3.72245V6.31495C32.12 6.97495 32.2675 7.43995 33.0125 7.43995C33.42 7.43995 33.9425 7.16995 34.24 6.89245V3.72495L34.2425 3.72245Z" fill="white"/>
<path d="M36.9825 7.82995C36.9825 7.95995 36.9175 8.02495 36.7975 8.02495H36.38C36.26 8.02495 36.195 7.95995 36.195 7.82995V3.72245C36.195 3.59245 36.24 3.53745 36.3725 3.53745H36.7825C36.895 3.53745 36.96 3.58245 36.96 3.70495L36.97 4.01995C37.1925 3.71245 37.5275 3.43495 38.0575 3.43495C38.2625 3.43495 38.4 3.46245 38.3825 3.60245L38.3175 4.01995C38.3075 4.08495 38.27 4.12995 38.1875 4.12995C38.14 4.12995 38.0575 4.10245 37.9175 4.10245C37.5925 4.10245 37.23 4.31495 36.9875 4.65995V7.82745L36.9825 7.82995Z" fill="white"/>
<path d="M39.995 2.43995C39.995 2.70995 39.79 2.88495 39.52 2.88495C39.25 2.88495 39.0375 2.70745 39.0375 2.43995C39.0375 2.17245 39.2425 1.99495 39.5125 1.99495C39.7825 1.99495 39.995 2.17245 39.995 2.43995ZM39.9125 7.82995C39.9125 7.95995 39.8475 8.02495 39.7275 8.02495H39.31C39.19 8.02495 39.125 7.95995 39.125 7.82995V3.72245C39.125 3.59245 39.19 3.53745 39.31 3.53745H39.7375C39.8575 3.53745 39.915 3.59245 39.915 3.72245V7.82995H39.9125Z" fill="white"/>
<path d="M41.7475 5.84245C41.2175 5.63745 40.8175 5.25745 40.8175 4.67245C40.8175 3.85495 41.5425 3.43745 42.36 3.43745C42.76 3.43745 43.16 3.50245 43.5575 3.68745C43.64 3.72495 43.67 3.77995 43.64 3.86495L43.5275 4.17245C43.5 4.26495 43.435 4.28495 43.3425 4.24745C43.065 4.12745 42.6725 4.02495 42.375 4.02495C41.8275 4.02495 41.585 4.30245 41.585 4.61995C41.585 4.93745 41.8 5.08495 42.19 5.25245L42.905 5.55745C43.415 5.77245 43.8425 6.14245 43.8425 6.73745C43.8425 7.59245 43.1275 8.12245 42.1425 8.12245C41.67 8.12245 41.1775 7.98245 40.87 7.82495C40.7875 7.77745 40.75 7.72245 40.7875 7.63995L40.9075 7.32495C40.935 7.24245 40.9925 7.20495 41.085 7.24245C41.42 7.38995 41.8475 7.51995 42.1625 7.51995C42.7025 7.51995 43.065 7.24995 43.065 6.81245C43.065 6.44995 42.805 6.25495 42.3675 6.08745L41.745 5.84495L41.7475 5.84245Z" fill="white"/>
<path d="M45.4625 7.82995C45.4625 7.95995 45.3975 8.02495 45.2775 8.02495H44.86C44.74 8.02495 44.675 7.95995 44.675 7.82995V3.72245C44.675 3.60245 44.74 3.53745 44.8525 3.53745H45.2525C45.365 3.53745 45.4375 3.58245 45.4375 3.70495L45.4475 3.99245C45.8375 3.63995 46.3575 3.43495 46.86 3.43495C47.3625 3.43495 47.825 3.61995 48.0675 4.00995C48.495 3.62995 49.07 3.43495 49.61 3.43495C50.79 3.43495 51.135 4.22495 51.135 5.25495V7.82995C51.135 7.95995 51.07 8.02495 50.95 8.02495H50.5325C50.4125 8.02495 50.3475 7.95995 50.3475 7.82995V5.22745C50.3475 4.54995 50.18 4.08495 49.4275 4.08495C49.045 4.08495 48.59 4.26995 48.265 4.52245C48.32 4.69995 48.34 5.25495 48.34 5.54495V7.82995C48.34 7.95995 48.275 8.02495 48.155 8.02495H47.7375C47.6175 8.02495 47.5525 7.95995 47.5525 7.82995V5.21995C47.5525 4.57745 47.4125 4.08495 46.68 4.08495C46.2525 4.08495 45.8075 4.32745 45.4725 4.63245V7.82745L45.4625 7.82995Z" fill="white"/>
<path d="M5.11254 17.995C4.58254 18.4675 3.75504 18.6725 2.82754 18.6725H1.17254C1.05254 18.6725 0.977539 18.6174 0.977539 18.4599V12.485C0.977539 12.3275 1.05254 12.27 1.17254 12.27H2.41754C3.59754 12.27 4.21004 12.3725 4.79504 12.735C5.58504 13.2275 6.06754 14.1925 6.06754 15.5025C6.06754 16.5625 5.72254 17.4349 5.11004 17.9925M4.35754 13.4125C3.92004 13.06 3.35504 12.9675 2.72254 12.9675H1.84004V17.985H2.64004C3.45754 17.985 4.03254 17.9025 4.47004 17.465C4.91504 17.01 5.14754 16.3325 5.14754 15.495C5.14754 14.6025 4.87754 13.8325 4.35754 13.4125Z" fill="white"/>
<path d="M7.66754 16.545C7.69504 17.4175 8.17754 18.115 9.09754 18.115C9.49754 18.115 9.92504 18.06 10.24 17.92C10.3225 17.8825 10.4075 17.8825 10.445 17.985L10.5575 18.2924C10.595 18.395 10.5675 18.4425 10.465 18.4975C10.065 18.7025 9.43254 18.7675 8.99754 18.7675C7.58504 18.7675 6.84254 17.82 6.84254 16.425C6.84254 15.03 7.64254 14.0825 8.98004 14.0825C10.1875 14.0825 10.8 14.975 10.8 16.0525V16.285C10.8 16.5 10.7625 16.545 10.5225 16.545H7.66754ZM10.0175 16.0075V15.84C10.0175 15.2075 9.66504 14.6975 8.94004 14.6975C8.16754 14.6975 7.75004 15.3025 7.68504 16.0075H10.0175Z" fill="white"/>
<path d="M13.1675 17.7999L14.2825 14.335C14.32 14.2225 14.385 14.1875 14.515 14.1875H14.9425C15.0925 14.1875 15.1 14.27 15.0625 14.3725L13.5475 18.525C13.5 18.6375 13.4375 18.6725 13.335 18.6725H12.89C12.77 18.6725 12.705 18.6275 12.6675 18.525L11.1625 14.3525C11.125 14.25 11.18 14.185 11.2925 14.185H11.8025C11.9425 14.185 11.9975 14.2225 12.025 14.315L13.16 17.7999H13.17H13.1675Z" fill="white"/>
<path d="M16.2375 16.545C16.265 17.4175 16.7475 18.115 17.6675 18.115C18.0675 18.115 18.495 18.06 18.81 17.92C18.8925 17.8825 18.9775 17.8825 19.015 17.985L19.1275 18.2924C19.165 18.395 19.1375 18.4425 19.035 18.4975C18.635 18.7025 18.0025 18.7675 17.5675 18.7675C16.155 18.7675 15.4125 17.82 15.4125 16.425C15.4125 15.03 16.2125 14.0825 17.55 14.0825C18.7575 14.0825 19.37 14.975 19.37 16.0525V16.285C19.37 16.5 19.3325 16.545 19.0925 16.545H16.2375ZM18.5875 16.0075V15.84C18.5875 15.2075 18.235 14.6975 17.51 14.6975C16.7375 14.6975 16.32 15.3025 16.255 16.0075H18.5875Z" fill="white"/>
<path d="M21.035 18.4775C21.035 18.6075 20.97 18.6725 20.85 18.6725H20.4325C20.3125 18.6725 20.2475 18.6075 20.2475 18.4775V12.3275C20.2475 12.2075 20.275 12.15 20.3875 12.1325L20.8525 12.0675C20.9825 12.05 21.0375 12.105 21.0375 12.225V18.4775H21.035Z" fill="white"/>
<path d="M24.03 18.7649C22.59 18.7649 21.95 17.7425 21.95 16.415C21.95 15.0875 22.7025 14.0825 24.0875 14.0825C25.4725 14.0825 26.1775 15.0775 26.1775 16.425C26.1775 17.7725 25.415 18.7675 24.03 18.7675M24.0775 14.6975C23.075 14.6975 22.7675 15.58 22.7675 16.3975C22.7675 17.215 23.055 18.1525 24.04 18.1525C25.025 18.1525 25.36 17.2975 25.36 16.4325C25.36 15.5675 25.045 14.695 24.0775 14.695" fill="white"/>
<path d="M29.1175 18.7649C28.6625 18.7649 28.17 18.5875 27.89 18.245V20.4749C27.89 20.6049 27.825 20.6699 27.705 20.6699H27.2875C27.1675 20.6699 27.1025 20.6049 27.1025 20.4749V14.37C27.1025 14.24 27.15 14.185 27.28 14.185H27.66C27.7725 14.185 27.835 14.2325 27.835 14.3525L27.845 14.6775C28.1425 14.325 28.7 14.0825 29.23 14.0825C30.55 14.0825 31.135 15.1875 31.135 16.3875C31.135 17.5875 30.4675 18.7649 29.12 18.7649M29.0725 14.715C28.635 14.715 28.125 14.975 27.8925 15.31V17.495C28.0875 17.8575 28.5625 18.145 29.0175 18.145C29.975 18.145 30.31 17.235 30.31 16.4075C30.31 15.58 30.04 14.715 29.075 14.715" fill="white"/>
<path d="M32.8475 18.4775C32.8475 18.6075 32.7825 18.6725 32.6625 18.6725H32.245C32.125 18.6725 32.06 18.6075 32.06 18.4775V14.37C32.06 14.25 32.125 14.185 32.2375 14.185H32.6375C32.75 14.185 32.8225 14.2325 32.8225 14.3525L32.8325 14.64C33.2225 14.2875 33.7425 14.0825 34.245 14.0825C34.7475 14.0825 35.21 14.2675 35.4525 14.66C35.88 14.2775 36.455 14.0825 36.995 14.0825C38.175 14.0825 38.52 14.8725 38.52 15.905V18.4775C38.52 18.6075 38.455 18.6725 38.335 18.6725H37.9175C37.7975 18.6725 37.7325 18.6075 37.7325 18.4775V15.875C37.7325 15.1975 37.565 14.7325 36.8125 14.7325C36.43 14.7325 35.975 14.9175 35.65 15.17C35.705 15.3475 35.725 15.905 35.725 16.1925V18.4775C35.725 18.6075 35.66 18.6725 35.54 18.6725H35.1225C35.0025 18.6725 34.9375 18.6075 34.9375 18.4775V15.8675C34.9375 15.225 34.7975 14.7325 34.065 14.7325C33.6375 14.7325 33.1925 14.975 32.8575 15.28V18.4775H32.8475Z" fill="white"/>
<path d="M40.2525 16.545C40.28 17.4175 40.765 18.115 41.685 18.115C42.085 18.115 42.5125 18.06 42.8275 17.92C42.91 17.8825 42.995 17.8825 43.0325 17.985L43.145 18.2924C43.1825 18.395 43.155 18.4425 43.0525 18.4975C42.6525 18.7025 42.0225 18.7675 41.585 18.7675C40.1725 18.7675 39.43 17.82 39.43 16.425C39.43 15.03 40.23 14.0825 41.5675 14.0825C42.775 14.0825 43.39 14.975 43.39 16.0525V16.285C43.39 16.5 43.3525 16.545 43.1125 16.545H40.2525ZM42.6025 16.0075V15.84C42.6025 15.2075 42.25 14.6975 41.525 14.6975C40.7525 14.6975 40.335 15.3025 40.27 16.0075H42.6025Z" fill="white"/>
<path d="M45.05 18.4775C45.05 18.6075 44.985 18.6725 44.865 18.6725H44.4475C44.3275 18.6725 44.2625 18.6075 44.2625 18.4775V14.37C44.2625 14.24 44.3075 14.185 44.44 14.185H44.85C44.9625 14.185 45.0275 14.2325 45.0275 14.3525L45.0375 14.64C45.465 14.2775 46.0225 14.0825 46.5625 14.0825C47.63 14.0825 48.04 14.7325 48.04 15.745V18.4775C48.04 18.6075 47.975 18.6725 47.855 18.6725H47.4375C47.3175 18.6725 47.2525 18.6075 47.2525 18.4775V15.875C47.2525 15.215 47.085 14.7425 46.3425 14.7425C45.915 14.7425 45.385 14.985 45.06 15.28V18.4775H45.05Z" fill="white"/>
<path d="M49.31 13.135C49.31 13.015 49.3375 12.9575 49.45 12.94L49.915 12.875C50.045 12.8575 50.1 12.9125 50.1 13.0325V14.185H51.1875C51.29 14.185 51.3275 14.2225 51.3275 14.325V14.6025C51.3275 14.705 51.29 14.7425 51.1875 14.7425H50.1V17.2425C50.1 17.8475 50.2125 18.145 50.76 18.145C50.9725 18.145 51.17 18.1 51.3275 18.0424C51.42 18.0049 51.495 18.025 51.5225 18.125L51.605 18.4025C51.6325 18.505 51.595 18.5525 51.485 18.5975C51.2725 18.68 50.9175 18.7649 50.6125 18.7649C49.535 18.7649 49.3125 18.245 49.3125 17.2975V14.7425H48.8025C48.7 14.7425 48.6625 14.705 48.6625 14.6025V14.325C48.6625 14.2225 48.7 14.185 48.8025 14.185H49.3125V13.135H49.31Z" fill="white"/>
<path d="M34.1625 23.5975V25.6325H36.355C36.475 25.6325 36.5325 25.67 36.5325 25.7825V26.1549C36.5325 26.2649 36.4775 26.3025 36.355 26.3025H34.1625V29.1375C34.1625 29.2575 34.1075 29.3224 33.985 29.3224H33.4825C33.3525 29.3224 33.2975 29.275 33.2975 29.1375V23.1349C33.2975 22.9774 33.3725 22.9225 33.4925 22.9225H36.745C36.875 22.9225 36.9225 22.9775 36.9025 23.08L36.8475 23.4524C36.8275 23.5725 36.7725 23.5999 36.6425 23.5999H34.1625V23.5975Z" fill="white"/>
<path d="M40.465 25.0175C40.465 24.8875 40.53 24.8325 40.65 24.8325H41.0775C41.1975 24.8325 41.255 24.8875 41.255 25.0175V29.1325C41.255 29.2624 41.2075 29.3175 41.0775 29.3175H40.6675C40.555 29.3175 40.4925 29.2725 40.4925 29.15L40.4825 28.8525C40.055 29.215 39.5525 29.41 39.015 29.41C37.9475 29.41 37.5575 28.7225 37.5575 27.7275V25.0149C37.5575 24.885 37.6225 24.83 37.7425 24.83H38.17C38.29 24.83 38.3475 24.885 38.3475 25.0149V27.6074C38.3475 28.2674 38.495 28.7299 39.24 28.7299C39.6475 28.7299 40.17 28.4599 40.4675 28.1824V25.0149L40.465 25.0175Z" fill="white"/>
<path d="M43.2075 29.125C43.2075 29.2549 43.1425 29.32 43.0225 29.32H42.605C42.485 29.32 42.42 29.2549 42.42 29.125V25.0175C42.42 24.8875 42.465 24.8325 42.5975 24.8325H43.0075C43.12 24.8325 43.185 24.8775 43.185 25L43.195 25.2874C43.6225 24.9249 44.18 24.7299 44.72 24.7299C45.7875 24.7299 46.1975 25.38 46.1975 26.3925V29.125C46.1975 29.2549 46.1325 29.32 46.0125 29.32H45.595C45.475 29.32 45.41 29.2549 45.41 29.125V26.5224C45.41 25.8624 45.2425 25.3899 44.5 25.3899C44.0725 25.3899 43.5425 25.6325 43.2175 25.93V29.1274L43.2075 29.125Z" fill="white"/>
<path d="M49.0025 29.4124C47.665 29.4124 47.0875 28.3149 47.0875 27.0999C47.0875 25.7349 47.8875 24.7299 49.1125 24.7299C49.54 24.7299 50.05 24.915 50.32 25.24V22.9725C50.32 22.85 50.3475 22.795 50.46 22.7775L50.925 22.7125C51.055 22.695 51.11 22.7499 51.11 22.8699V29.1225C51.11 29.2525 51.045 29.3175 50.925 29.3175H50.5725C50.4325 29.3175 50.3775 29.2624 50.3775 29.1325L50.3675 28.8074C50.07 29.16 49.53 29.4124 49 29.4124M50.32 26.0024C50.125 25.6499 49.68 25.36 49.2225 25.36C48.3875 25.36 47.9025 26.0375 47.9025 27.06C47.9025 28.0825 48.34 28.7775 49.1475 28.7775C49.585 28.7775 50.085 28.5 50.3175 28.165V26L50.32 26.0024Z" fill="white"/>
<path d="M60.7075 3.63745C59.3875 3.63745 58.5875 4.49995 58.5875 5.79745C58.5875 7.20245 59.3975 8.02245 60.5375 8.02245C60.8675 8.02245 61.25 7.94745 61.57 7.76745C61.475 8.68245 60.515 9.21495 58.855 9.21495C57.0975 9.21495 56.2475 8.65995 56.2475 7.57495C56.2475 7.15995 56.385 6.63745 56.62 6.15745C56.725 5.93495 56.6825 5.84995 56.4925 5.76495L55.9825 5.52995C55.7475 5.43495 55.6625 5.50995 55.545 5.73245C55.215 6.38245 55.035 7.06245 55.035 7.65995C55.035 9.44995 56.43 10.365 58.8475 10.365C61.265 10.365 62.7775 9.46995 62.7775 7.59745V5.70245C62.7775 4.28495 61.9375 3.63745 60.7125 3.63745M61.585 6.63995C61.33 6.79995 61.02 6.87495 60.765 6.87495C60.105 6.87495 59.8075 6.52245 59.8075 5.78995C59.8075 5.18245 60.1175 4.77745 60.745 4.77745C61.3725 4.77745 61.585 5.13995 61.585 5.69245V6.63995Z" fill="white"/>
<path d="M60.0375 2.46745C60.3775 2.46745 60.645 2.24245 60.645 1.89245C60.645 1.54245 60.38 1.30745 60.0375 1.30745C59.695 1.30745 59.42 1.54245 59.42 1.89245C59.42 2.24245 59.6875 2.46745 60.0375 2.46745Z" fill="white"/>
<path d="M61.6025 2.46745C61.9425 2.46745 62.21 2.24245 62.21 1.89245C62.21 1.54245 61.945 1.30745 61.6025 1.30745C61.26 1.30745 60.985 1.54245 60.985 1.89245C60.985 2.24245 61.2525 2.46745 61.6025 2.46745Z" fill="white"/>
<path d="M66.085 3.63745C64.765 3.63745 63.965 4.49995 63.965 5.79745C63.965 7.20245 64.775 8.02245 65.9125 8.02245C66.19 8.02245 66.52 7.95745 66.7975 7.82995C66.595 8.46745 66.1275 8.85245 65.1675 9.36245C64.965 9.46995 64.9 9.56495 64.9875 9.72495L65.285 10.2675C65.37 10.4275 65.4875 10.46 65.6375 10.385C67.7675 9.31995 68.15 8.55245 68.15 6.73245V5.69995C68.15 4.28245 67.31 3.63495 66.085 3.63495M66.9575 6.63745C66.7025 6.79745 66.3925 6.87245 66.1375 6.87245C65.4775 6.87245 65.18 6.51995 65.18 5.78745C65.18 5.17995 65.4875 4.77495 66.1175 4.77495C66.7475 4.77495 66.9575 5.13745 66.9575 5.68995V6.63745Z" fill="white"/>
<path d="M84.995 2.35995C85.3475 2.35995 85.6125 2.13495 85.6125 1.78495C85.6125 1.43495 85.345 1.19995 84.995 1.19995C84.645 1.19995 84.3875 1.43495 84.3875 1.78495C84.3875 2.13495 84.6525 2.35995 84.995 2.35995Z" fill="white"/>
<path d="M84.1325 8.02495C84.825 8.02495 85.2825 7.84495 85.5175 7.49245C85.765 7.80995 86.1575 7.99995 86.71 8.02495H91.885C93.6 8.02495 94.2175 7.49245 94.2175 6.07745C94.2175 4.46995 93.355 3.42495 91.9075 3.42495C90.8 3.42495 89.81 4.11745 89.0325 5.15995V3.88245C89.0325 3.68995 88.9375 3.63745 88.7675 3.63745H88.1075C87.9375 3.63745 87.83 3.70245 87.83 3.88245V6.85245H86.83C86.275 6.85245 85.9575 6.75745 85.7225 6.54245V3.90245C85.7225 3.70995 85.6375 3.63745 85.445 3.63745H84.8075C84.615 3.63745 84.53 3.71245 84.53 3.90245V6.30995C84.53 6.74745 84.435 6.85245 84.02 6.85245H74.01V5.76745C74.01 4.09495 73.18 3.44495 71.5175 3.44495C71.05 3.44495 70.3575 3.53995 70.0275 3.67995C69.9 3.73245 69.8575 3.79745 69.8575 3.95745V4.45745C69.8575 4.62745 69.9425 4.69245 70.08 4.69245C70.4325 4.69245 70.9 4.58495 71.39 4.58495C72.4125 4.58495 72.8175 4.89495 72.8175 5.81995V6.85245H69.4325C69.2525 6.85245 69.1875 6.95995 69.1875 7.12995V7.75745C69.1875 7.92745 69.2525 8.02495 69.4325 8.02495H84.1375H84.1325ZM92.0975 6.85495H89.02C89.745 5.69495 90.7775 4.56495 91.83 4.56495C92.555 4.56495 92.99 5.10745 92.99 6.00245C92.99 6.61995 92.7775 6.85495 92.095 6.85495" fill="white"/>
<path d="M57.585 12.125C57.925 12.125 58.1925 11.9025 58.1925 11.55C58.1925 11.1975 57.9275 10.965 57.585 10.965C57.2425 10.965 56.9675 11.2 56.9675 11.55C56.9675 11.9 57.235 12.125 57.585 12.125Z" fill="white"/>
<path d="M59.15 12.125C59.49 12.125 59.7575 11.9025 59.7575 11.55C59.7575 11.1975 59.49 10.965 59.15 10.965C58.81 10.965 58.5325 11.2 58.5325 11.55C58.5325 11.9 58.8 12.125 59.15 12.125Z" fill="white"/>
<path d="M63.7625 19.95C63.41 19.95 63.145 20.1849 63.145 20.535C63.145 20.885 63.4125 21.11 63.7625 21.11C64.1125 21.11 64.37 20.8875 64.37 20.535C64.37 20.1824 64.105 19.95 63.7625 19.95Z" fill="white"/>
<path d="M62.195 19.95C61.8425 19.95 61.5775 20.1849 61.5775 20.535C61.5775 20.885 61.8425 21.11 62.195 21.11C62.5475 21.11 62.8025 20.8875 62.8025 20.535C62.8025 20.1824 62.535 19.95 62.195 19.95Z" fill="white"/>
<path d="M83.2075 13.0075C83.56 13.0075 83.825 12.785 83.825 12.4325C83.825 12.08 83.5575 11.8475 83.2075 11.8475C82.8575 11.8475 82.6 12.0825 82.6 12.4325C82.6 12.7825 82.8675 13.0075 83.2075 13.0075Z" fill="white"/>
<path d="M86.38 13.0075C86.72 13.0075 86.9875 12.785 86.9875 12.4325C86.9875 12.08 86.72 11.8475 86.38 11.8475C86.04 11.8475 85.7625 12.0825 85.7625 12.4325C85.7625 12.7825 86.03 13.0075 86.38 13.0075Z" fill="white"/>
<path d="M87.945 13.0075C88.285 13.0075 88.5525 12.785 88.5525 12.4325C88.5525 12.08 88.285 11.8475 87.945 11.8475C87.605 11.8475 87.3275 12.0825 87.3275 12.4325C87.3275 12.7825 87.5925 13.0075 87.945 13.0075Z" fill="white"/>
<path d="M85.0375 17.5025C84.485 17.5025 84.165 17.4074 83.93 17.1924V14.5525C83.93 14.36 83.845 14.2875 83.6525 14.2875H83.015C82.8225 14.2875 82.7375 14.3625 82.7375 14.5525V16.9599C82.7375 17.3974 82.6425 17.5025 82.2275 17.5025H80.4275V17.45C80.4275 16.055 79.6275 15.2999 78.33 15.2999C77.0325 15.2999 76.2225 16.13 76.2225 17.3025V17.5049H65.805C65.2525 17.5049 64.9325 17.41 64.6975 17.195V14.555C64.6975 14.3625 64.6125 14.29 64.42 14.29H63.7825C63.59 14.29 63.505 14.365 63.505 14.555V16.9625C63.505 17.4 63.41 17.5049 62.995 17.5049H59.79C59.215 17.5049 59.045 17.3025 59.045 16.8349V13.5975C59.045 13.4475 58.96 13.3625 58.81 13.385L58.0425 13.4799C57.905 13.5 57.85 13.565 57.85 13.745V14.0949C55.71 14.8299 55.0175 15.83 55.0175 16.705C55.0175 17.76 55.9225 18.1425 56.8275 18.1425C57.2325 18.1425 57.6575 18.0675 57.9975 17.93C58.2525 18.42 58.8375 18.6749 59.7125 18.6749H63.1075C63.8 18.6749 64.2575 18.4925 64.4925 18.1425C64.74 18.4599 65.135 18.65 65.685 18.6749H76.4975C76.5925 18.91 76.7225 19.1425 76.86 19.3675C77.02 19.6224 77.125 19.6749 77.445 19.6749H78.105C79.085 19.6749 79.7875 19.3449 80.15 18.6749H82.3425C83.035 18.6749 83.4925 18.4925 83.7275 18.1425C83.975 18.4599 84.3675 18.65 84.92 18.6749H86.155C86.8475 18.6749 87.305 18.4925 87.54 18.1425C87.7875 18.4599 88.18 18.65 88.7325 18.6749H89.8625C90.97 18.6749 91.45 18.2174 91.45 17.3449V11.2975C91.45 11.1375 91.375 11.0525 91.2275 11.075L90.46 11.18C90.3225 11.2025 90.2575 11.255 90.2575 11.435V16.9625C90.2575 17.4 90.1625 17.5049 89.7475 17.5049H88.8525C88.2975 17.5049 87.98 17.41 87.745 17.195V14.555C87.745 14.3625 87.66 14.29 87.4675 14.29H86.8275C86.635 14.29 86.55 14.365 86.55 14.555V16.9625C86.55 17.4 86.455 17.5049 86.04 17.5049H85.04L85.0375 17.5025ZM57.85 16.8325C57.5725 16.9275 57.265 17.0025 56.965 17.0025C56.4975 17.0025 56.23 16.8324 56.23 16.5224C56.23 15.9999 56.88 15.51 57.8475 15.17V16.83L57.85 16.8325ZM78.2325 18.5049H77.7325C77.54 18.1849 77.435 17.8349 77.435 17.4725C77.435 16.9399 77.6375 16.44 78.33 16.44C79.0225 16.44 79.215 16.9399 79.215 17.4725C79.215 18.2175 78.7875 18.5049 78.235 18.5049" fill="white"/>
<path d="M93.8025 11.07L93.035 11.1775C92.8975 11.1975 92.8325 11.2525 92.8325 11.4325V18.4074C92.8325 18.5999 92.9175 18.6725 93.11 18.6725H93.75C93.94 18.6725 94.0275 18.5975 94.0275 18.4074V11.295C94.0275 11.135 93.9525 11.05 93.805 11.0725" fill="white"/>
<path d="M58.145 32.8349C57.7925 32.8349 57.5275 33.0699 57.5275 33.4199C57.5275 33.7699 57.7925 33.9949 58.145 33.9949C58.4975 33.9949 58.7525 33.7724 58.7525 33.4199C58.7525 33.0674 58.485 32.8349 58.145 32.8349Z" fill="white"/>
<path d="M59.71 32.8349C59.3575 32.8349 59.0925 33.0699 59.0925 33.4199C59.0925 33.7699 59.36 33.9949 59.71 33.9949C60.06 33.9949 60.3175 33.7724 60.3175 33.4199C60.3175 33.0674 60.0525 32.8349 59.71 32.8349Z" fill="white"/>
<path d="M68.005 29.32C68.185 29.32 68.25 29.2125 68.25 29.0424V28.3725C68.25 28.2125 68.24 28.15 68.0475 27.9674C67.75 27.7024 67.61 27.3825 67.4825 26.7975C67.195 25.455 66.525 24.7425 65.225 24.7425C64.64 24.7425 64.0325 24.9224 63.4475 25.3074C63.31 25.4024 63.2775 25.4874 63.33 25.6049L63.585 26.18C63.65 26.34 63.7225 26.3725 63.905 26.275C64.375 25.9975 64.7775 25.88 65.1175 25.88C65.8 25.88 66.13 26.1999 66.31 27.0499C66.4475 27.6574 66.555 27.8925 66.8 28.1474H62.5425C61.8825 28.1474 61.3925 28.0625 60.36 27.7L59.7425 27.4874C59.53 27.4124 59.4125 27.4774 59.3475 27.6899L59.1775 28.2324C59.125 28.4024 59.1675 28.5099 59.3475 28.5724L60.3375 28.9124C61.0825 29.1674 61.3925 29.3925 61.3925 29.6474C61.3925 30.0949 60.435 30.5099 58.7725 30.5099C57.005 30.5099 56.165 29.9549 56.165 28.8699C56.165 28.4549 56.3025 27.9324 56.5375 27.4524C56.645 27.2299 56.6025 27.1449 56.41 27.0574L55.9 26.8224C55.665 26.7174 55.58 26.8025 55.4625 27.025C55.1325 27.675 54.9525 28.3549 54.9525 28.9524C54.9525 30.74 56.3475 31.6575 58.765 31.6575C61.1825 31.6575 62.61 30.8049 62.61 29.6974C62.61 29.5899 62.5775 29.4424 62.505 29.3149H68.01L68.005 29.32Z" fill="white"/>
<path d="M77.565 30.5975C77.2125 30.5975 76.9475 30.8324 76.9475 31.1824C76.9475 31.5324 77.215 31.7575 77.565 31.7575C77.915 31.7575 78.1725 31.535 78.1725 31.1824C78.1725 30.8299 77.905 30.5975 77.565 30.5975Z" fill="white"/>
<path d="M76 30.5975C75.6475 30.5975 75.3825 30.8324 75.3825 31.1824C75.3825 31.5324 75.65 31.7575 76 31.7575C76.35 31.7575 76.6075 31.535 76.6075 31.1824C76.6075 30.8299 76.3425 30.5975 76 30.5975Z" fill="white"/>
<path d="M76.915 29.32C77.6075 29.32 78.065 29.1374 78.3 28.7874C78.5475 29.1049 78.9425 29.295 79.4925 29.32H80.7275C81.43 29.32 81.9 29.1075 82.155 28.735C82.485 29.13 83.0175 29.32 83.485 29.32C84.0925 29.32 84.5275 29.075 84.785 28.6925C85.1375 29.1175 85.615 29.32 86.17 29.32C86.7775 29.32 87.225 29.075 87.48 28.6925C87.7225 29.0775 88.14 29.2999 88.7575 29.32H89.865C90.9725 29.32 91.4525 28.8624 91.4525 27.9874V21.9399C91.4525 21.7799 91.3775 21.695 91.23 21.7174L90.4625 21.825C90.325 21.845 90.26 21.9 90.26 22.08V27.6074C90.26 28.0449 90.165 28.15 89.75 28.15H88.855C88.3125 28.15 87.9825 28.065 87.7475 27.84C87.7575 27.7649 87.7575 27.6899 87.7575 27.6049V25.1875C87.7575 24.995 87.6625 24.9324 87.4925 24.9324H86.8C86.65 24.9324 86.555 24.9974 86.555 25.1875V27.455C86.555 27.86 86.395 28.18 85.905 28.18C85.6275 28.18 85.34 28.0725 85.075 27.84V26.1474C85.075 25.955 84.99 25.8925 84.82 25.8925H84.15C83.98 25.8925 83.8825 25.9574 83.8825 26.1474V27.4575C83.8825 27.8625 83.7225 28.1824 83.2325 28.1824C82.955 28.1824 82.6675 28.075 82.3925 27.8525V26.1474C82.3925 25.955 82.3075 25.8925 82.1375 25.8925H81.445C81.295 25.8925 81.19 25.9574 81.19 26.1474V27.5424C81.19 27.9475 80.9975 28.15 80.5925 28.15H79.6125C79.06 28.15 78.74 28.055 78.505 27.84V25.2C78.505 25.0075 78.42 24.935 78.2275 24.935H77.59C77.3975 24.935 77.3125 25.01 77.3125 25.2V27.6074C77.3125 28.0449 77.2175 28.15 76.8 28.15H71.01C70.595 28.15 70.4975 28.0424 70.4975 27.6074V21.9425C70.4975 21.7825 70.4225 21.6975 70.275 21.72L69.5075 21.8274C69.37 21.8475 69.305 21.9025 69.305 22.0825V27.9925C69.305 28.865 69.785 29.325 70.8925 29.325H76.915V29.32Z" fill="white"/>
<path d="M93.8025 21.7174L93.035 21.825C92.8975 21.845 92.8325 21.9 92.8325 22.08V29.055C92.8325 29.2474 92.9175 29.3224 93.11 29.3224H93.75C93.94 29.3224 94.0275 29.2474 94.0275 29.055V21.9425C94.0275 21.7825 93.9525 21.6975 93.805 21.72" fill="white"/>
</svg>
