<svg width="59" height="52" viewBox="0 0 59 52" fill="none" xmlns="http://www.w3.org/2000/svg">
<path d="M45.1443 38.74L49.5628 41.664C49.9911 41.9478 50.5127 42.0578 51.0202 41.9715C51.5277 41.8852 51.9827 41.6091 52.2916 41.2L58.3332 33.2L55.111 30.8L50.2112 37.288L45.7565 34.336C45.3216 34.0474 44.7906 33.9383 44.2761 34.0316C43.7615 34.1249 43.3037 34.4134 42.9995 34.836L36.5833 43.758V28H32.5555V48C32.5565 49.0605 32.9812 50.0773 33.7364 50.8273C34.4915 51.5772 35.5153 51.9989 36.5833 52H56.7221V48H38.4823L45.1443 38.74ZM0.333252 38H28.5277V42H0.333252V38ZM0.333252 48H28.5277V52H0.333252V48ZM18.4583 28V18H20.4721C22.6078 17.9974 24.6552 17.1536 26.1653 15.6539C27.6755 14.1542 28.525 12.1209 28.5277 10V4H22.486C20.4238 4.00336 18.4422 4.79637 16.9539 6.214C15.911 4.33354 14.3795 2.76517 12.5189 1.67226C10.6583 0.579347 8.53663 0.00187796 6.37492 0H0.333252V6C0.336983 9.18146 1.61124 12.2316 3.8765 14.4812C6.14176 16.7308 9.21303 17.9963 12.4166 18H14.4305V28H0.333252V32H28.5277V28H18.4583ZM22.486 8H24.4999V10C24.4989 11.0605 24.0742 12.0773 23.319 12.8273C22.5639 13.5772 21.54 13.9989 20.4721 14H18.4583V12C18.4593 10.9395 18.884 9.92266 19.6391 9.17274C20.3943 8.42283 21.4181 8.00106 22.486 8ZM12.4166 14C10.2809 13.9974 8.23352 13.1536 6.72339 11.6539C5.21326 10.1542 4.36369 8.12092 4.36103 6V4H6.37492C8.51057 4.00265 10.558 4.84635 12.0681 6.34607C13.5782 7.84579 14.4278 9.87908 14.4305 12V14H12.4166Z" fill="#F9FAFB"/>
</svg>
