<svg width="18" height="21" viewBox="0 0 18 21" fill="none" xmlns="http://www.w3.org/2000/svg">
<path d="M14.75 20.17C14.5333 20.17 14.3543 20.099 14.213 19.957C14.0717 19.815 14.0007 19.636 14 19.42C14 19.2033 14.071 19.0243 14.213 18.883C14.355 18.7416 14.534 18.6707 14.75 18.67H16.5V17.92H15.75C15.5333 17.92 15.3543 17.849 15.213 17.707C15.0717 17.565 15.0007 17.386 15 17.17C15 16.9533 15.071 16.7743 15.213 16.633C15.355 16.4916 15.534 16.4207 15.75 16.42H16.5V15.67H14.75C14.5333 15.67 14.3543 15.599 14.213 15.457C14.0717 15.315 14.0007 15.136 14 14.92C14 14.7033 14.071 14.5243 14.213 14.383C14.355 14.2416 14.534 14.1706 14.75 14.17H17C17.2833 14.17 17.521 14.266 17.713 14.458C17.905 14.65 18.0007 14.8873 18 15.17V16.17C18 16.4533 17.904 16.691 17.712 16.883C17.52 17.075 17.2827 17.1707 17 17.17C17.2833 17.17 17.521 17.266 17.713 17.458C17.905 17.65 18.0007 17.8873 18 18.17V19.17C18 19.4533 17.904 19.691 17.712 19.883C17.52 20.075 17.2827 20.1707 17 20.17H14.75ZM14.75 13.17C14.5333 13.17 14.3543 13.099 14.213 12.957C14.0717 12.815 14.0007 12.636 14 12.42V10.42C14 10.1366 14.096 9.89898 14.288 9.70698C14.48 9.51498 14.7173 9.41932 15 9.41998H16.5V8.66998H14.75C14.5333 8.66998 14.3543 8.59898 14.213 8.45698C14.0717 8.31498 14.0007 8.13598 14 7.91998C14 7.70332 14.071 7.52432 14.213 7.38298C14.355 7.24165 14.534 7.17065 14.75 7.16998H17C17.2833 7.16998 17.521 7.26598 17.713 7.45798C17.905 7.64998 18.0007 7.88732 18 8.16998V9.91998C18 10.2033 17.904 10.441 17.712 10.633C17.52 10.825 17.2827 10.9206 17 10.92H15.5V11.67H17.25C17.4667 11.67 17.6457 11.741 17.787 11.883C17.9283 12.025 17.9993 12.204 18 12.42C18 12.6366 17.929 12.8156 17.787 12.957C17.645 13.0983 17.466 13.1693 17.25 13.17H14.75ZM16.25 6.16998C16.0333 6.16998 15.8543 6.09898 15.713 5.95698C15.5717 5.81498 15.5007 5.63598 15.5 5.41998V1.66998H14.75C14.5333 1.66998 14.3543 1.59898 14.213 1.45698C14.0717 1.31498 14.0007 1.13598 14 0.919983C14 0.703316 14.071 0.524316 14.213 0.382983C14.355 0.24165 14.534 0.17065 14.75 0.169983H16.25C16.4667 0.169983 16.6457 0.240983 16.787 0.382983C16.9283 0.524983 16.9993 0.703983 17 0.919983V5.41998C17 5.63665 16.929 5.81565 16.787 5.95698C16.645 6.09832 16.466 6.16932 16.25 6.16998ZM1 17.17C0.71667 17.17 0.479003 17.074 0.287003 16.882C0.0950034 16.69 -0.000663206 16.4527 3.46021e-06 16.17C3.46021e-06 15.8866 0.0960036 15.649 0.288004 15.457C0.480004 15.265 0.717337 15.1693 1 15.17H11C11.2833 15.17 11.521 15.266 11.713 15.458C11.905 15.65 12.0007 15.8873 12 16.17C12 16.4533 11.904 16.691 11.712 16.883C11.52 17.075 11.2827 17.1707 11 17.17H1ZM1 11.17C0.71667 11.17 0.479003 11.074 0.287003 10.882C0.0950034 10.69 -0.000663206 10.4526 3.46021e-06 10.17C3.46021e-06 9.88665 0.0960036 9.64898 0.288004 9.45698C0.480004 9.26498 0.717337 9.16932 1 9.16998H11C11.2833 9.16998 11.521 9.26598 11.713 9.45798C11.905 9.64998 12.0007 9.88732 12 10.17C12 10.4533 11.904 10.691 11.712 10.883C11.52 11.075 11.2827 11.1706 11 11.17H1ZM1 5.16998C0.71667 5.16998 0.479003 5.07398 0.287003 4.88198C0.0950034 4.68998 -0.000663206 4.45265 3.46021e-06 4.16998C3.46021e-06 3.88665 0.0960036 3.64898 0.288004 3.45698C0.480004 3.26498 0.717337 3.16932 1 3.16998H11C11.2833 3.16998 11.521 3.26598 11.713 3.45798C11.905 3.64998 12.0007 3.88732 12 4.16998C12 4.45332 11.904 4.69098 11.712 4.88298C11.52 5.07498 11.2827 5.17065 11 5.16998H1Z" fill="white"/>
</svg>
