<svg width="24" height="18" viewBox="0 0 24 18" fill="none" xmlns="http://www.w3.org/2000/svg">
<path d="M22.95 10.27C22.8712 10.3291 22.7816 10.3721 22.6862 10.3965C22.5908 10.4209 22.4915 10.4264 22.394 10.4124C22.2965 10.3985 22.2027 10.3655 22.1179 10.3153C22.0332 10.2651 21.9591 10.1988 21.9 10.12C21.448 9.51234 20.8596 9.01933 20.1822 8.68064C19.5048 8.34195 18.7574 8.16703 18 8.16997C17.8526 8.16995 17.7083 8.12646 17.5855 8.04492C17.4626 7.96338 17.3664 7.84741 17.3091 7.71153C17.2702 7.61926 17.2501 7.52012 17.2501 7.41997C17.2501 7.31982 17.2702 7.22068 17.3091 7.1284C17.3664 6.99252 17.4626 6.87656 17.5855 6.79502C17.7083 6.71348 17.8526 6.66998 18 6.66997C18.4209 6.66993 18.8332 6.55188 19.1903 6.32922C19.5474 6.10657 19.8349 5.78824 20.0201 5.41038C20.2054 5.03253 20.2809 4.6103 20.2382 4.19165C20.1955 3.773 20.0363 3.37473 19.7786 3.04205C19.5208 2.70938 19.175 2.45564 18.7803 2.30967C18.3856 2.1637 17.9579 2.13134 17.5458 2.21626C17.1336 2.30119 16.7535 2.5 16.4487 2.79011C16.1439 3.08023 15.9265 3.45001 15.8213 3.85747C15.7967 3.95288 15.7535 4.04251 15.6942 4.12124C15.635 4.19997 15.5608 4.26625 15.4759 4.31631C15.391 4.36636 15.2971 4.39921 15.1995 4.41298C15.102 4.42674 15.0026 4.42115 14.9072 4.39653C14.8118 4.37191 14.7222 4.32873 14.6435 4.26947C14.5647 4.21021 14.4984 4.13602 14.4484 4.05114C14.3983 3.96626 14.3655 3.87236 14.3517 3.77478C14.338 3.67721 14.3435 3.57788 14.3682 3.48247C14.5142 2.91745 14.7901 2.39431 15.1738 1.95467C15.5576 1.51503 16.0387 1.17104 16.5788 0.950046C17.119 0.729056 17.7032 0.637175 18.2851 0.681714C18.867 0.726254 19.4304 0.905984 19.9306 1.2066C20.4308 1.50722 20.8539 1.92043 21.1663 2.41336C21.4787 2.90628 21.6718 3.46532 21.7301 4.04598C21.7884 4.62664 21.7104 5.2129 21.5023 5.75811C21.2942 6.30332 20.9617 6.79243 20.5313 7.18653C21.5511 7.62809 22.4377 8.32879 23.1028 9.21903C23.1619 9.29802 23.2049 9.3879 23.2292 9.48351C23.2535 9.57912 23.2587 9.67858 23.2445 9.7762C23.2303 9.87383 23.197 9.96769 23.1465 10.0524C23.0959 10.1371 23.0292 10.2111 22.95 10.27ZM17.8988 16.045C17.9531 16.1303 17.9895 16.2258 18.0059 16.3256C18.0223 16.4254 18.0184 16.5275 17.9943 16.6258C17.9703 16.724 17.9266 16.8164 17.8659 16.8973C17.8052 16.9782 17.7288 17.046 17.6412 17.0966C17.5536 17.1473 17.4567 17.1797 17.3563 17.1918C17.2559 17.204 17.154 17.1958 17.0569 17.1676C16.9597 17.1394 16.8693 17.0919 16.791 17.0279C16.7127 16.9638 16.6482 16.8846 16.6013 16.795C16.1288 15.995 15.456 15.332 14.6491 14.8714C13.8422 14.4108 12.9291 14.1686 12 14.1686C11.0709 14.1686 10.1579 14.4108 9.35101 14.8714C8.54412 15.332 7.87124 15.995 7.39879 16.795C7.3519 16.8846 7.28737 16.9638 7.20907 17.0279C7.13078 17.0919 7.04034 17.1394 6.94319 17.1676C6.84604 17.1958 6.7442 17.204 6.64379 17.1918C6.54337 17.1797 6.44647 17.1473 6.35889 17.0966C6.27132 17.046 6.19489 16.9782 6.1342 16.8973C6.07351 16.8164 6.02982 16.724 6.00576 16.6258C5.98169 16.5275 5.97775 16.4254 5.99417 16.3256C6.01058 16.2258 6.04702 16.1303 6.10129 16.045C6.82841 14.7956 7.93709 13.8125 9.26441 13.24C8.51753 12.6681 7.96863 11.8766 7.69485 10.9767C7.42107 10.0767 7.43619 9.11365 7.73808 8.22275C8.03997 7.33186 8.61345 6.55796 9.37791 6.00985C10.1424 5.46174 11.0594 5.16696 12 5.16696C12.9407 5.16696 13.8577 5.46174 14.6222 6.00985C15.3866 6.55796 15.9601 7.33186 16.262 8.22275C16.5639 9.11365 16.579 10.0767 16.3052 10.9767C16.0314 11.8766 15.4825 12.6681 14.7357 13.24C16.063 13.8125 17.1717 14.7956 17.8988 16.045ZM12 12.67C12.5934 12.67 13.1734 12.494 13.6667 12.1644C14.1601 11.8347 14.5446 11.3662 14.7717 10.818C14.9987 10.2698 15.0581 9.66664 14.9424 9.0847C14.8266 8.50275 14.5409 7.9682 14.1214 7.54865C13.7018 7.12909 13.1673 6.84337 12.5853 6.72761C12.0034 6.61186 11.4002 6.67127 10.852 6.89833C10.3038 7.12539 9.83527 7.50991 9.50563 8.00326C9.17598 8.4966 9.00004 9.07662 9.00004 9.66997C9.00004 10.4656 9.31611 11.2287 9.87872 11.7913C10.4413 12.3539 11.2044 12.67 12 12.67ZM6.75004 7.41997C6.75004 7.22105 6.67102 7.03029 6.53037 6.88964C6.38972 6.74898 6.19895 6.66997 6.00004 6.66997C5.57922 6.66993 5.16685 6.55188 4.80976 6.32922C4.45267 6.10657 4.16518 5.78824 3.97994 5.41038C3.7947 5.03253 3.71915 4.6103 3.76185 4.19165C3.80455 3.773 3.9638 3.37473 4.22151 3.04205C4.47922 2.70938 4.82507 2.45564 5.21976 2.30967C5.61444 2.1637 6.04216 2.13134 6.45432 2.21626C6.86648 2.30119 7.24656 2.5 7.55139 2.79011C7.85622 3.08023 8.07358 3.45001 8.17879 3.85747C8.22851 4.05016 8.35275 4.21521 8.52417 4.31631C8.69559 4.4174 8.90015 4.44626 9.09285 4.39653C9.28555 4.3468 9.4506 4.22256 9.55169 4.05114C9.65278 3.87972 9.68164 3.67516 9.63191 3.48247C9.48589 2.91745 9.21001 2.39431 8.82623 1.95467C8.44246 1.51503 7.96136 1.17104 7.42124 0.950046C6.88112 0.729056 6.29688 0.637175 5.715 0.681714C5.13312 0.726254 4.56966 0.905984 4.06947 1.2066C3.56927 1.50722 3.14614 1.92043 2.83374 2.41336C2.52135 2.90628 2.3283 3.46532 2.26998 4.04598C2.21165 4.62664 2.28965 5.2129 2.49777 5.75811C2.70588 6.30332 3.03838 6.79243 3.46879 7.18653C2.44999 7.62851 1.56446 8.32918 0.900037 9.21903C0.840881 9.29782 0.797823 9.3875 0.773323 9.48293C0.748822 9.57836 0.743358 9.67769 0.757244 9.77523C0.771129 9.87278 0.804091 9.96663 0.854248 10.0514C0.904406 10.1362 0.970775 10.2103 1.04957 10.2695C1.12836 10.3287 1.21803 10.3717 1.31347 10.3962C1.4089 10.4207 1.50823 10.4262 1.60577 10.4123C1.70332 10.3984 1.79717 10.3654 1.88198 10.3153C1.96678 10.2651 2.04088 10.1988 2.10004 10.12C2.55209 9.51234 3.14049 9.01933 3.81787 8.68064C4.49526 8.34195 5.2427 8.16703 6.00004 8.16997C6.19895 8.16997 6.38972 8.09095 6.53037 7.9503C6.67102 7.80964 6.75004 7.61888 6.75004 7.41997Z" fill="white"/>
</svg>
