<svg width="24" height="21" viewBox="0 0 24 21" fill="none" xmlns="http://www.w3.org/2000/svg">
<path d="M2 4.16998H0V9.16998H0.01L0 18.17C0 19.27 0.9 20.17 2 20.17H20V18.17H2V4.16998ZM7 13.17H21L17.5 8.66998L15 11.68L11.5 7.16998L7 13.17ZM22 2.16998H14L12 0.169983H6C4.9 0.169983 4.01 1.06998 4.01 2.16998L4 14.17C4 15.27 4.9 16.17 6 16.17H22C23.1 16.17 24 15.27 24 14.17V4.16998C24 3.06998 23.1 2.16998 22 2.16998ZM22 14.17H6V2.16998H11.17L12.58 3.57998L13.17 4.16998H22V14.17Z" fill="white"/>
</svg>
